<svg xmlns="http://www.w3.org/2000/svg" width="100" height="100" version="1.2"><path d="M50 100C22.4 100 0 77.7 0 50 0 22.4 22.4 0 50 0c27.7 0 50 22.4 50 50 0 27.7-22.3 50-50 50z" style="fill:#3f5df3"/><path d="M46.3 26c-1.1 0-2.1.8-2.3 1.9l-.8 4.2c-2 .7-3.8 1.8-5.4 3.1l-4-1.4c-1.1-.4-2.3.1-2.9 1.1l-3.6 6.3c-.6 1-.3 2.2.5 3l3.2 2.7q-.3 1.5-.3 3.1t.3 3.1l-3.2 2.8c-.8.7-1.1 2-.5 3l3.6 6.3c.6 1 1.8 1.4 2.9 1.1l4-1.4c1.6 1.3 3.4 2.4 5.4 3.1l.8 4.1c.2 1.1 1.2 2 2.3 2h7.3c1.1 0 2.1-.9 2.3-2l.8-4.1c2-.7 3.8-1.8 5.4-3.1l4 1.4c1.1.3 2.3-.1 2.8-1.1l3.7-6.3c.5-1 .3-2.3-.5-3l-3.2-2.8q.3-1.5.3-3.1t-.3-3.1l3.2-2.7c.8-.8 1-2 .5-3l-3.7-6.3c-.5-1-1.7-1.5-2.8-1.1l-4 1.4c-1.6-1.4-3.4-2.4-5.4-3.1l-.8-4.2c-.2-1.1-1.2-1.9-2.3-1.9zm3.6 14.4c5.3 0 9.6 4.3 9.6 9.6s-4.3 9.6-9.6 9.6-9.6-4.3-9.6-9.6 4.3-9.6 9.6-9.6z" style="fill:#fff"/></svg>