<svg version="1.1" id="Layer_1" xmlns="http://www.w3.org/2000/svg" x="0" y="0" viewBox="0 0 100 100" style="enable-background:new 0 0 100 100" xml:space="preserve"><style>.st0{fill:#4fa2ff}.st1{fill:#9bcaff}</style><circle transform="rotate(-44.992 50 50.001)" class="st0" cx="50" cy="50" r="50"/><circle class="st1" cx="50" cy="50" r="40"/><path class="st0" d="M37.9 30h24.2c1.8 0 3.5.9 4.6 2.4l8 11.3c1.6 2.2 1.3 5.3-.6 7.3L54 71c-2.2 2.2-5.8 2.2-8 0L25.9 50.9c-1.9-1.9-2.2-5-.6-7.3l8-11.3c1.1-1.4 2.8-2.3 4.6-2.3z"/><path class="st1" d="m39.4 41.1-2.5 3.5c-.7 1-.6 2.5.3 3.4l11 11c1 1 2.7 1 3.7 0l11-11c.9-.9 1-2.3.3-3.4l-2.5-3.5c-.5-.7-1.3-1.1-2.1-1.1h-17c-.9 0-1.7.4-2.2 1.1z"/></svg>