<svg xmlns="http://www.w3.org/2000/svg" viewBox="0 0 100 100" style="enable-background:new 0 0 100 100" xml:space="preserve"><path d="M26.5 9.9h47c3.5 0 6.8 1.7 8.9 4.7l15.6 22c3.1 4.2 2.5 10.3-1.2 14.2L57.7 89.5c-4.2 4.2-11.2 4.2-15.6 0l-39-39.1C-.5 46.7-1 40.8 2 36.2l15.6-22c2.1-2.6 5.4-4.3 8.9-4.3z" style="fill:#1f65ff"/><path d="m29.4 31.5-4.8 6.8c-1.3 1.9-1.2 4.8.6 6.6l21.3 21.3c1.9 1.9 5.2 1.9 7.2 0L75 44.9c1.7-1.7 1.9-4.5.6-6.6l-4.8-6.8c-1-1.3-2.5-2.2-4.1-2.2h-33c-1.8 0-3.4.8-4.3 2.2z" style="fill:#74baff"/></svg>