<svg xmlns="http://www.w3.org/2000/svg" viewBox="0 0 100 100" style="enable-background:new 0 0 100 100" xml:space="preserve"><path d="M30.5 17h39c2.9 0 5.6 1.4 7.4 3.9l12.9 18.2c2.6 3.5 2.1 8.5-1 11.8L56.4 83c-3.5 3.5-9.3 3.5-12.9 0L11.2 50.6c-3.1-3.1-3.5-8-1-11.8l12.9-18.2c1.8-2.2 4.5-3.6 7.4-3.6z" style="fill:#1f65ff"/><path d="m32.9 34.9-4 5.6c-1.1 1.6-1 4 .5 5.5l17.7 17.7c1.6 1.6 4.3 1.6 6 0L70.8 46c1.4-1.4 1.6-3.7.5-5.5l-4-5.6c-.8-1.1-2.1-1.8-3.4-1.8H36.5c-1.5 0-2.8.6-3.6 1.8z" style="fill:#74baff"/></svg>